<svg xmlns="http://www.w3.org/2000/svg" version="1.1" xmlns:xlink="http://www.w3.org/1999/xlink" xmlns:svgjs="http://svgjs.com/svgjs" width="512" height="512" x="0" y="0" viewBox="0 0 433.488 433.488" style="enable-background:new 0 0 512 512" xml:space="preserve"><g><g><g><g><path d="m216.752 44.762c-3.877 0-7-3.14-7-7v-30.762c0-3.877 3.14-7 7-7s7 3.14 7 7v30.745c0 3.878-3.139 7.017-7 7.017z" fill="#ffffff" data-original="#ffffff"></path></g><g><path d="m127.262 68.748c-2.419 0-4.77-1.252-6.074-3.5l-15.372-26.628c-1.939-3.346-.789-7.635 2.556-9.574 3.346-1.939 7.635-.789 9.574 2.556l15.373 26.628c1.939 3.346.789 7.635-2.556 9.574-1.116.635-2.317.944-3.501.944z" fill="#ffffff" data-original="#ffffff"></path></g><g><path d="m61.739 134.253c-1.184 0-2.385-.309-3.5-.944l-26.628-15.373c-3.346-1.939-4.495-6.211-2.556-9.574 1.939-3.346 6.211-4.495 9.574-2.556l26.628 15.373c3.346 1.939 4.495 6.211 2.556 9.574-1.304 2.248-3.655 3.5-6.074 3.5z" fill="#ffffff" data-original="#ffffff"></path></g><g><path d="m37.754 223.744h-30.745c-3.877 0-7-3.14-7-7s3.14-7 7-7h30.745c3.877 0 7 3.14 7 7s-3.123 7-7 7z" fill="#ffffff" data-original="#ffffff"></path></g><g><path d="m35.112 328.624c-2.419 0-4.77-1.252-6.074-3.5-1.939-3.346-.789-7.635 2.556-9.574l26.628-15.373c3.346-1.939 7.635-.789 9.574 2.556 1.939 3.346.789 7.635-2.556 9.574l-26.628 15.373c-1.098.635-2.316.944-3.5.944z" fill="#ffffff" data-original="#ffffff"></path></g><g><path d="m111.872 405.385c-1.184 0-2.385-.309-3.5-.944-3.346-1.939-4.495-6.211-2.556-9.574l15.373-26.628c1.939-3.346 6.211-4.495 9.574-2.556 3.346 1.939 4.495 6.211 2.556 9.574l-15.373 26.628c-1.304 2.247-3.655 3.5-6.074 3.5z" fill="#ffffff" data-original="#ffffff"></path></g><g><path d="m216.752 433.488c-3.877 0-7-3.14-7-7v-30.745c0-3.878 3.14-7 7-7s7 3.14 7 7v30.745c0 3.86-3.139 7-7 7z" fill="#ffffff" data-original="#ffffff"></path></g><g><path d="m321.616 405.385c-2.419 0-4.77-1.253-6.074-3.5l-15.373-26.628c-1.939-3.346-.789-7.635 2.574-9.574 3.346-1.939 7.635-.789 9.574 2.556l15.373 26.628c1.939 3.346.789 7.635-2.574 9.574-1.098.652-2.299.944-3.5.944z" fill="#ffffff" data-original="#ffffff"></path></g><g><path d="m398.376 328.624c-1.184 0-2.402-.309-3.5-.944l-26.628-15.373c-3.346-1.939-4.495-6.211-2.574-9.574 1.939-3.346 6.228-4.495 9.574-2.556l26.628 15.373c3.346 1.939 4.495 6.211 2.574 9.574-1.287 2.248-3.655 3.5-6.074 3.5z" fill="#ffffff" data-original="#ffffff"></path></g><g><path d="m426.479 223.744h-30.745c-3.878 0-7-3.14-7-7s3.14-7 7-7h30.745c3.878 0 7 3.14 7 7s-3.123 7-7 7z" fill="#ffffff" data-original="#ffffff"></path></g><g><path d="m371.765 134.253c-2.419 0-4.77-1.252-6.074-3.5-1.939-3.346-.789-7.635 2.574-9.574l26.628-15.373c3.346-1.939 7.635-.789 9.574 2.556 1.939 3.346.789 7.635-2.574 9.574l-26.628 15.373c-1.115.635-2.316.944-3.5.944z" fill="#ffffff" data-original="#ffffff"></path></g><g><path d="m306.243 68.748c-1.184 0-2.402-.309-3.5-.944-3.346-1.939-4.495-6.228-2.574-9.574l15.373-26.628c1.939-3.346 6.228-4.495 9.574-2.556s4.495 6.228 2.574 9.574l-15.373 26.628c-1.304 2.23-3.655 3.5-6.074 3.5z" fill="#ffffff" data-original="#ffffff"></path></g><g><path d="m216.752 223.744h-70.927c-3.877 0-7-3.14-7-7s3.14-7 7-7h63.91v-100.66c0-3.877 3.14-7 7-7s7 3.14 7 7v107.66c.017 3.877-3.122 7-6.983 7z" fill="#ffffff" data-original="#ffffff"></path></g></g></g></g></svg>