<svg xmlns="http://www.w3.org/2000/svg" version="1.1" xmlns:xlink="http://www.w3.org/1999/xlink" xmlns:svgjs="http://svgjs.com/svgjs" width="512" height="512" x="0" y="0" viewBox="0 0 91 91" style="enable-background:new 0 0 512 512" xml:space="preserve"><g><g fill="rgb(0,0,0)"><circle cx="7.85" cy="67.91" r="1.75" fill="#ffffff" data-original="#ffffff"></circle><path d="m89.63 55.24c-.08-.1-1.83-1.85-1.83-1.85-2.79-2.79-7-2.7-10.34-1.13l.16-.3a1.73 1.73 0 0 0 .13-1.37 1.69 1.69 0 0 0 -.9-1 4 4 0 0 0 -.49-.21l-2.12-.68c-4.5-1.47-8.9 1.67-10.94 5.55l-6.16 9.44h-1.22a9.75 9.75 0 0 0 1.83-5.79s-.09-1-.09-1a1.76 1.76 0 0 0 -1.75-1.58h-24.44a1.76 1.76 0 0 0 -1.16.44l-8.95 7.88h-2.54v-4.29a1.75 1.75 0 0 0 -1.75-1.75h-14.07a1.75 1.75 0 0 0 0 3.5h12.3v25.48h-7.42a1.75 1.75 0 1 0 0 3.5h9.19a1.76 1.76 0 0 0 1.75-1.75v-2.22h13.07a1.77 1.77 0 0 0 .6-.11l34.42-12.77a2 2 0 0 0 .38-.2l22-15.17a1.78 1.78 0 0 0 .74-1.24 1.74 1.74 0 0 0 -.4-1.38zm-23.35.81.09-.15c1.31-2.55 4.13-4.78 6.79-3.91l.39.12-1.77 3.26c0 .05 0 .11-.07.17l-8.2 4.76zm-.8 14-33.91 12.56h-12.75v-15.52h3.18a1.76 1.76 0 0 0 1.15-.44l9-7.88h22.06a6.49 6.49 0 0 1 -1.33 3.1 4.41 4.41 0 0 1 -2.73 1.78h-14.07a1.75 1.75 0 0 0 0 3.5h22.1a1.81 1.81 0 0 0 .88-.23s18.4-10.61 18.45-10.65c2.31-1.67 5.84-2.38 7.82-.4l.29.29z" fill="#ffffff" data-original="#ffffff"></path><path d="m82.05 30a1.75 1.75 0 0 0 1.75-1.75v-13.93a1.75 1.75 0 0 0 -3.5 0v13.92a1.75 1.75 0 0 0 1.75 1.76z" fill="#ffffff" data-original="#ffffff"></path><path d="m82.05 39.25a1.75 1.75 0 0 0 1.75-1.75v-.44a1.75 1.75 0 0 0 -3.5 0v.44a1.75 1.75 0 0 0 1.75 1.75z" fill="#ffffff" data-original="#ffffff"></path><path d="m25.47 19a1.76 1.76 0 0 0 1.75-1.75v-14.64a1.75 1.75 0 1 0 -3.5 0v14.66a1.75 1.75 0 0 0 1.75 1.73z" fill="#ffffff" data-original="#ffffff"></path><path d="m25.47 36.79a1.75 1.75 0 0 0 1.75-1.79v-9.83a1.75 1.75 0 0 0 -3.5 0v9.83a1.75 1.75 0 0 0 1.75 1.79z" fill="#ffffff" data-original="#ffffff"></path><path d="m16.76 36.13a1.75 1.75 0 0 0 1.75-1.75v-14.49a1.75 1.75 0 0 0 -3.5 0v14.49a1.75 1.75 0 0 0 1.75 1.75z" fill="#ffffff" data-original="#ffffff"></path><path d="m16.76 42.61a1.75 1.75 0 0 0 1.75-1.75v-.24a1.75 1.75 0 1 0 -3.5 0v.24a1.75 1.75 0 0 0 1.75 1.75z" fill="#ffffff" data-original="#ffffff"></path><path d="m48 45.27a21.52 21.52 0 0 0 5.61.75 21.43 21.43 0 0 0 15.59-36.02 1.75 1.75 0 0 0 -2.56 2.39 17.92 17.92 0 1 1 -8.43-5.07 1.75 1.75 0 0 0 .91-3.38 21.41 21.41 0 1 0 -11.12 41.33z" fill="#ffffff" data-original="#ffffff"></path><path d="m55.91 13.28v-.92a1.75 1.75 0 0 0 -3.5 0v.92h-.81c-4 0-7.25 2.84-7.25 6.34v.25a5.7 5.7 0 0 0 4.51 5.29l3.55.73v6.19h-.81c-2 0-3.75-1.31-3.75-2.86a1.75 1.75 0 1 0 -3.5 0c0 3.51 3.25 6.36 7.25 6.36h.81v1.13a1.75 1.75 0 1 0 3.5 0v-1.13h.09c4 0 7.25-2.85 7.25-6.36v-.22a5.63 5.63 0 0 0 -4.6-5.37l-2.74-.63v-6.22h.09c2 0 3.76 1.3 3.76 2.84a1.75 1.75 0 1 0 3.5 0c0-3.5-3.26-6.34-7.26-6.34zm2 13.75a2.16 2.16 0 0 1 1.88 1.97v.24c0 1.55-1.72 2.86-3.75 2.86h-.13v-5.49zm-5.51-4.71-2.82-.58a2.25 2.25 0 0 1 -1.74-1.87v-.25c0-1.54 1.72-2.84 3.75-2.84h.81z" fill="#ffffff" data-original="#ffffff"></path></g></g></svg>